<?xml version="1.0" encoding="utf-8"?>
<!-- Generator: Adobe Illustrator 19.0.0, SVG Export Plug-In . SVG Version: 6.00 Build 0)  -->
<svg version="1.1" id="Layer_1" xmlns="http://www.w3.org/2000/svg" xmlns:xlink="http://www.w3.org/1999/xlink" x="0px" y="0px"
	 viewBox="0 0 40 40" style="enable-background:new 0 0 40 40;" xml:space="preserve">
<style type="text/css">
	.st0{fill:url(#SVGID_1_);}
	.st1{fill:none;stroke:#000000;stroke-linecap:round;stroke-linejoin:round;stroke-miterlimit:10;}
	.st2{fill:#BC4B4B;}
	.st3{fill:none;stroke:#000000;stroke-width:2;stroke-linecap:round;stroke-linejoin:round;stroke-miterlimit:10;}
</style>
<linearGradient id="SVGID_1_" gradientUnits="userSpaceOnUse" x1="1.5888" y1="30.6952" x2="38.8112" y2="9.2048">
	<stop  offset="0" style="stop-color:#EDE940"/>
	<stop  offset="1" style="stop-color:#F5876C"/>
</linearGradient>
<path class="st0" d="M5.2,2.9h30v34h-30C5.2,36.9,5.2,2.9,5.2,2.9z"/>
<path class="st1" d="M13,31.1c1.6-0.5,3.7-1.2,6.2-2.2c1.5-0.7,2.6-1.2,3.6-1.8c3.7-2,5.6-2.9,7.5-4.8c0.9-0.8,2.1-2.1,3.2-3.9"/>
<path d="M31.8,26.4c0,2.3-1.9,4.2-4.2,4.2h0c-2.3,0-4.2-1.9-4.2-4.2v0c0-2.3,1.9-4.2,4.2-4.2S31.8,24,31.8,26.4z"/>
<path class="st2" d="M30.8,26.4c0,1.8-1.4,3.2-3.2,3.2c0,0,0,0,0,0c-1.8,0-3.2-1.4-3.2-3.2c0,0,0,0,0,0c0-1.8,1.4-3.2,3.2-3.2
	C29.4,23.2,30.8,24.6,30.8,26.4z"/>
<path class="st3" d="M10.2,5.1h10.2 M10.2,9.8h5.7 M5.2,3.1v21.1 M3.1,26.9c2-0.3,4.6-0.9,7.6-1.7c3.7-1,6.4-2.1,8.7-3
	c2.9-1.1,6.6-2.8,9.9-5.7c0.9-0.8,1.9-1.8,1.8-3.1c-0.1-1.1-0.9-2-1.7-2.5c-1.9-1-4.2,0.3-5.5,1c-3.4,1.8-3.6,3.8-6.4,5.1
	c-1.9,0.9-3.8,0.9-5,0.8 M5.2,37v-8.3 M5.2,37h30"/>
</svg>
